# xmcd
#
# Track frame offsets:
#	150
#	18152
#	40330
#	58267
#	73762
#	88160
#	110572
#	126737
#	151130
#	170065
#	194410
#	214235
#	230595
#	251345
#	276672
#	293930
#	309642
#
# Disc length: 4361 seconds
#
# Revision: 4
# Processed by: cddbd v1.4PL0 Copyright (c) Steve Scherf et al.
# Submitted via: audiograbber 1.81.02
#
DISCID=10110711
DTITLE=Various Artist - Gay Happening Vol. 2
DYEAR=1994
DGENRE=Dance
TTITLE0=Kitt, Eartha - Where Is My Man
TTITLE1=Weather Girls - Can U Feel It
TTITLE2=McKane, Lorraine - Let The Night Take The Blame
TTITLE3=West End featuring Sybil - The Love I've Lost
TTITLE4=Wills, Viola - Gonna Get Along Without You Now
TTITLE5=Beverly - The Power Of Love
TTITLE6=Doop - Doop
TTITLE7=Washington, Sarah - I Will Always Love You
TTITLE8=Payne, Freda - Band Of Gold
TTITLE9=Bronki Beat - Smalltown Boy
TTITLE10=PLP Enterprise - Ain't Nobody
TTITLE11=Gaynor, Gloria - I Will Survive ('93 remix)
TTITLE12=Grant, Natalie - Greatest Love Of All
TTITLE13=Dram Girls - When Will I See You Again
TTITLE14=Next Generation - Without You
TTITLE15=Goodmen - Give It Up
TTITLE16=Outhere Brothers - Fuk U In The Ass
EXTD=YEAR: 1994 ID3G:   0 YEAR: 1994 ID3G:   0
EXTT0=Eartha KittEartha Kitt
EXTT1=Weather GirlsWeather Girls
EXTT2=Lorraine McKaneLorraine McKane
EXTT3=West End (Feat. Sybil)West End (Feat. Sybil)
EXTT4=Viola WillsViola Wills
EXTT5=BeverlyBeverly
EXTT6=DoopDoop
EXTT7=Sarah WashingtonSarah Washington
EXTT8=Freda PayneFreda Payne
EXTT9=Bronski BeatBronski Beat
EXTT10=PLP EnterprisePLP Enterprise
EXTT11=Gloria GaynorGloria Gaynor
EXTT12=Natalie GrantNatalie Grant
EXTT13=The Dream GirlsThe Dream Girls
EXTT14=Next GenerationNext Generation
EXTT15=The GoodmenThe Goodmen
EXTT16=The Outhere BrothersThe Outhere Brothers
PLAYORDER=
